<svg width="160" height="43" fill="none" xmlns="http://www.w3.org/2000/svg"><path d="M23.81 8.978 3.004 21.902 23.81 35.05 21.701 37.7 0 24.136v-4.531L21.925 6.042l1.885 2.936ZM31.032 4.191h12.4s-.639 1.15-1.757 3.192l-4.634 7.882-5.817 10.403-.192.383V4.191Zm15.085.415c1.367.34 2.696.822 3.963 1.436.842.447 1.653.948 2.43 1.5.646.463 1.265.964 1.853 1.5.703.734 1.214 1.277 1.534 1.66.528.685 1.019 1.399 1.47 2.138a17.277 17.277 0 0 1 2.43 8.808v.223a16.765 16.765 0 0 1-1.918 7.755 15.229 15.229 0 0 1-1.662 2.425 17.11 17.11 0 0 1-1.47 1.66c-.61.632-1.285 1.199-2.014 1.69-.43.333-.878.642-1.342.926a17.213 17.213 0 0 1-8.63 2.362H31v-6.893s.671-1.277 2.014-3.67c0 0 1.597-2.84 4.666-8.393l5.912-10.659 2.525-4.468ZM33.621 6.808v9.287s1.47-2.553 4.25-7.5l.96-1.691-5.21-.096Zm13.743.894-5.37 9.574c-3.707 6.733-5.657 10.211-5.816 10.467l-2.557 4.595V36.2h9.012a14.588 14.588 0 0 0 8.981-3.19c.352-.288.863-.735 1.534-1.405a15.318 15.318 0 0 0 1.598-2.01c.55-.8 1.01-1.655 1.375-2.553a14.149 14.149 0 0 0 1.054-5.234v-.223a15.013 15.013 0 0 0-1.31-5.936 12.982 12.982 0 0 0-1.278-2.234 12.155 12.155 0 0 0-1.598-2.01 16.15 16.15 0 0 0-1.534-1.373 14.897 14.897 0 0 0-4.091-2.33ZM83.732 4c-3.196 6.574-4.986 10.052-5.21 10.467l-4.538 9.223a1687.87 1687.87 0 0 1-4.474 9.031l-1.726-2.712c-.378-.69-.709-1.404-.99-2.139a16.829 16.829 0 0 1-1.247-6.382v-.128a17.406 17.406 0 0 1 3.032-9.623 17.445 17.445 0 0 1 7.866-6.333 17.92 17.92 0 0 1 2.909-.861 19.97 19.97 0 0 1 2.3-.32L83.733 4ZM68.136 21.328v.32a14.408 14.408 0 0 0 1.15 5.552s.671-1.308 1.79-3.606c.192-.319 1.758-3.478 4.73-9.574 2.205-4.5 3.356-6.797 3.388-6.924-.775.222-1.534.5-2.27.83-.734.32-1.44.705-2.109 1.148-.57.38-1.114.795-1.63 1.245-.492.433-.95.903-1.374 1.404a15.576 15.576 0 0 0-1.726 2.425c-.44.776-.814 1.587-1.118 2.425a14.15 14.15 0 0 0-.831 4.755Zm22.851-15.19c.797.4 1.556.87 2.27 1.404a18.17 18.17 0 0 1 3.803 3.862 17.029 17.029 0 0 1 1.662 2.84c.287.67.543 1.276.735 1.85l-2.493.799a14.225 14.225 0 0 0-1.119-2.522 15.187 15.187 0 0 0-1.502-2.233 18.213 18.213 0 0 0-2.11-2.075 10.838 10.838 0 0 0-1.98-1.34c-.64-.351-1.151-.606-1.599-.798l-5.593 11.361-3.196 6.383h20.007c-.511 1.436-.927 2.52-1.278 3.19-.458.91-.981 1.784-1.566 2.617a14.363 14.363 0 0 1-1.502 1.756c-.467.524-.98 1.004-1.534 1.436a18.28 18.28 0 0 1-2.94 1.978 17.471 17.471 0 0 1-8.023 2.01h-.224a17.47 17.47 0 0 1-8.341-2.17c-.607-.35-1.343-.829-2.237-1.435a2381.97 2381.97 0 0 1 5.625-11.33s.958-2.01 2.94-5.999l5.433-10.978 1.119-2.233a22.1 22.1 0 0 1 3.643 1.627Zm-12.4 22.211-2.94 5.936a14.815 14.815 0 0 0 15.724-.766 15.345 15.345 0 0 0 1.981-1.66 14.445 14.445 0 0 0 1.534-1.819c.397-.54.76-1.105 1.087-1.69H78.587ZM122.186 22.69l-8.246 20.04H111l7.479-17.966 3.707-2.074Zm-1.918-2.585L128.546 0h2.941l-7.351 18.03-3.868 2.075ZM159.81 19.627v4.467l-21.669 13.563L136 34.849l20.774-12.989L136 8.808 137.854 6l21.956 13.627Z" fill="#00DC82"/></svg>